# xmcd
#
# Track frame offsets:
# 150
# 15647
# 34071
# 55123
# 75121
# 97236
# 115629
# 134444
# 153833
#
# Disc length: 2348 seconds
#
#
# Revision: 0
# Processed by: cddbd v1.5.2PL0 Copyright (c) Steve Scherf et al.
# Submitted via: FreeRIP 2.951 
#
DISCID=61092a09
DTITLE=Juan Luis Guerra - Bachata Rosa
DYEAR=1900
DGENRE=
TTITLE0=Rosalia
TTITLE1=La abeja al panal
TTITLE2=Cartas de amor
TTITLE3=Estrellitas y duendes
TTITLE4=Pedir tu mano
TTITLE5=La bilirrubina
TTITLE6=Burbujas de amor
TTITLE7=Bachata rosa
TTITLE8=Acompañeme civil
EXTD=
EXTT0=
EXTT1=
EXTT2=
EXTT3=
EXTT4=
EXTT5=
EXTT6=
EXTT7=
EXTT8=
PLAYORDER=
